<?xml version="1.0" encoding="iso-8859-1"?>
<!-- Generator: Adobe Illustrator 19.0.0, SVG Export Plug-In . SVG Version: 6.00 Build 0)  -->
<svg version="1.1" id="Capa_1" xmlns="http://www.w3.org/2000/svg" xmlns:xlink="http://www.w3.org/1999/xlink" x="0px" y="0px"
	 viewBox="0 0 511.999 511.999" style="enable-background:new 0 0 511.999 511.999;" xml:space="preserve">
<circle style="fill:#FF9F00;" cx="380.759" cy="123.259" r="103.233"/>
<circle style="fill:#FFDE46;" cx="380.759" cy="123.259" r="71.709"/>
<path style="fill:#F77E00;" d="M452.252,48.784L313.42,201.513c42.231,36.376,106.01,32.684,143.73-8.812
	S492.481,87.364,452.252,48.784z"/>
<path style="fill:#EBB100;" d="M431.021,72.141l-96.368,106.014c29.333,24.667,73.16,21.941,99.164-6.665
	C459.82,142.883,458.365,98.995,431.021,72.141z"/>
<rect x="15.781" y="51.772" transform="matrix(-0.6856 -0.728 0.728 -0.6856 108.7834 180.5219)" style="fill:#9B000A;" width="155.188" height="29.996"/>
<polygon style="fill:#D3D0F3;" points="236.119,307.873 414.24,108.261 28.003,108.261 206.124,307.873 206.124,482.004 
	121.137,482.004 121.137,511.999 321.105,511.999 321.105,482.004 236.119,482.004 "/>
<polygon style="fill:#B9B6EC;" points="236.119,307.873 414.24,108.261 221.593,108.261 221.593,511.999 321.105,511.999 
	321.105,482.004 236.119,482.004 "/>
<polygon style="fill:#FF001E;" points="126.548,173.645 221.121,279.628 315.694,173.645 "/>
<polygon style="fill:#C30010;" points="221.593,173.645 221.593,279.1 315.694,173.645 "/>
<g>
</g>
<g>
</g>
<g>
</g>
<g>
</g>
<g>
</g>
<g>
</g>
<g>
</g>
<g>
</g>
<g>
</g>
<g>
</g>
<g>
</g>
<g>
</g>
<g>
</g>
<g>
</g>
<g>
</g>
</svg>
