<?xml version="1.0" standalone="no"?>
<!DOCTYPE svg PUBLIC "-//W3C//DTD SVG 20010904//EN"
 "http://www.w3.org/TR/2001/REC-SVG-20010904/DTD/svg10.dtd">
<svg version="1.0" xmlns="http://www.w3.org/2000/svg"
 width="424.000000pt" height="221.000000pt" viewBox="0 0 424.000000 221.000000"
 preserveAspectRatio="xMidYMid meet">

<g transform="translate(0.000000,221.000000) scale(0.100000,-0.100000)"
fill="#000000" stroke="none">
<path d="M580 2119 c0 -5 -4 -8 -8 -5 -16 9 -30 -52 -46 -193 -8 -80 -20 -147
-26 -151 -6 -4 -10 -31 -9 -61 2 -75 -19 -260 -35 -306 -12 -35 -16 -38 -59
-43 -54 -7 -57 -9 -66 -52 l-7 -33 -29 43 c-15 24 -34 64 -41 90 -12 46 -13
46 -13 12 -1 -56 16 -102 59 -160 33 -44 40 -62 40 -99 0 -55 -84 -397 -88
-360 -2 15 11 85 27 157 44 186 42 200 -26 187 -27 -5 -57 -27 -123 -93 -48
-48 -95 -103 -104 -122 -15 -30 -10 -27 35 23 58 65 182 157 211 157 23 0 23
-20 -2 -123 -28 -119 -50 -254 -50 -314 0 -28 -9 -104 -20 -168 -23 -135 -23
-135 -10 -135 5 0 14 19 20 43 61 243 160 437 294 576 33 35 52 59 41 53 -47
-24 -107 -88 -170 -179 -37 -54 -64 -87 -60 -73 14 52 115 249 186 364 l74
119 90 1 c74 1 97 5 130 24 30 17 34 22 15 18 -63 -13 -141 -18 -174 -12 l-37
7 41 58 c22 32 56 73 76 92 l35 34 92 -2 c51 -2 106 1 122 6 l30 8 -45 14
c-129 38 -238 -13 -373 -176 -14 -16 -28 -27 -32 -23 -17 16 91 140 143 165
17 8 32 20 32 27 1 12 56 63 110 99 19 13 34 29 33 35 -1 5 4 16 12 22 8 7 15
18 15 26 0 7 10 16 23 19 12 4 65 51 117 104 69 70 95 105 96 124 2 32 -20 36
-36 7 -6 -11 -17 -20 -24 -20 -8 0 -19 -7 -26 -15 -7 -8 -20 -14 -29 -13 -10
2 -15 -3 -13 -14 1 -9 -3 -20 -9 -24 -8 -4 -9 -3 -5 4 4 7 5 12 2 12 -7 0 -60
-82 -64 -100 -2 -8 -8 -19 -13 -25 -15 -15 0 45 18 74 8 13 10 20 4 17 -6 -4
-18 -21 -27 -37 -13 -26 -17 -29 -32 -17 -10 8 -13 9 -9 1 4 -6 -2 -27 -14
-45 -12 -20 -18 -24 -15 -12 7 24 -2 56 -14 49 -5 -3 -6 -14 -3 -25 4 -14 -3
-30 -17 -45 -23 -25 -20 -29 20 -26 10 0 11 -1 3 -5 -7 -3 -13 -13 -14 -22 0
-14 -2 -13 -9 3 -7 19 -8 18 -18 -7 -10 -25 -64 -63 -74 -52 -3 2 -11 -2 -18
-11 -10 -12 -10 -15 0 -15 10 0 10 -3 0 -15 -9 -11 -15 -13 -20 -5 -5 7 -16 0
-32 -19 -14 -16 -29 -27 -32 -24 -3 4 -6 0 -6 -7 0 -7 -8 -18 -17 -25 -15 -11
-15 -15 -4 -29 12 -14 9 -24 -22 -71 -36 -52 -38 -54 -67 -44 -16 6 -30 14
-30 18 0 25 34 101 45 101 17 0 24 11 29 47 2 15 7 42 11 58 9 35 2 31 -19
-10 l-16 -30 1 45 c0 34 2 40 9 25 8 -18 9 -18 9 -2 1 10 5 16 10 13 5 -3 12
2 16 11 3 10 1 19 -4 21 -6 2 -11 14 -11 27 0 30 24 87 33 78 4 -3 7 1 7 11 0
9 12 29 28 43 l27 26 -26 -5 c-22 -4 -25 -1 -21 14 2 10 9 15 16 11 6 -4 5 1
-3 10 -11 14 -12 23 -2 43 19 42 12 41 -14 -1 -21 -34 -24 -37 -25 -17 0 13 4
21 9 18 5 -3 12 5 15 18 3 13 9 32 13 42 4 12 3 15 -5 10 -18 -11 -15 -2 8 24
11 13 20 28 20 34 0 6 -5 4 -11 -4 -8 -12 -10 -8 -7 17 3 18 0 29 -4 26 -5 -3
-6 11 -3 31 5 24 3 36 -4 36 -6 0 -11 -5 -11 -11z m420 -284 c0 -2 -6 -5 -13
-8 -8 -3 -14 1 -14 8 0 7 6 11 14 8 7 -3 13 -6 13 -8z m-443 -47 c-3 -8 -6 -5
-6 6 -1 11 2 17 5 13 3 -3 4 -12 1 -19z m118 -263 c-35 -31 -37 -31 -24 -2 6
13 20 24 32 24 19 2 18 0 -8 -22z m-255 -207 c0 -20 -33 -108 -41 -108 -13 0
-39 49 -39 73 0 12 5 28 12 35 16 16 68 16 68 0z m53 -7 l24 -10 -46 -90 c-43
-84 -47 -88 -54 -63 -5 19 1 47 20 100 15 39 29 72 30 72 1 0 13 -4 26 -9z
m57 -26 c0 -6 -107 -186 -116 -194 -12 -13 20 59 57 127 22 39 45 72 50 72 5
0 9 -2 9 -5z m-173 -137 c-3 -7 -5 -2 -5 12 0 14 2 19 5 13 2 -7 2 -19 0 -25z
m-2 -142 c-14 -34 -44 -124 -65 -201 -41 -147 -55 -162 -19 -22 28 113 78 282
91 315 l12 27 4 -28 c2 -17 -8 -55 -23 -91z m-2 -68 c-9 -24 -20 -47 -25 -53
-5 -5 -4 2 1 18 6 15 15 38 21 52 5 14 12 25 15 25 3 0 -3 -19 -12 -42z"/>
<path d="M1491 1181 c-1 -72 2 -88 20 -107 19 -20 19 -27 10 -124 -6 -56 -11
-144 -11 -196 l0 -94 35 0 35 0 0 119 c0 66 -5 154 -11 196 -10 72 -9 79 10
99 18 19 21 34 20 107 l-2 84 -10 -57 c-6 -32 -14 -58 -18 -58 -4 0 -11 21
-15 48 -8 50 -9 49 -19 -10 -3 -21 -10 -38 -15 -38 -6 0 -10 17 -11 38 0 20
-4 46 -9 57 -6 13 -9 -8 -9 -64z"/>
<path d="M1743 1223 c-21 -29 -44 -118 -63 -238 -6 -38 -13 -78 -16 -87 -4
-15 1 -18 35 -18 l41 0 0 -110 0 -110 31 0 32 0 -7 98 c-3 53 -11 184 -16 291
-5 106 -11 196 -14 198 -2 2 -13 -8 -23 -24z"/>
<path d="M3340 1173 c0 -77 -13 -314 -25 -450 l-6 -63 37 0 37 0 -7 93 c-8
114 -4 127 40 127 21 0 34 5 34 13 0 6 -13 79 -29 161 -24 125 -33 152 -55
174 l-26 27 0 -82z"/>
<path d="M3522 1209 c-1 -26 -5 -60 -8 -77 -5 -25 -1 -36 20 -55 25 -23 26
-28 17 -68 -6 -24 -11 -113 -11 -196 l0 -153 30 0 30 0 0 144 c0 79 -5 168
-10 197 -10 49 -9 55 10 68 18 12 20 23 19 100 -1 47 -4 73 -6 56 -6 -53 -13
-75 -23 -75 -6 0 -10 16 -10 35 0 44 -18 46 -22 3 -4 -48 -22 -36 -29 19 l-6
48 -1 -46z"/>
<path d="M640 1221 c0 -10 33 -70 129 -229 l61 -104 0 -114 0 -114 40 0 40 0
0 116 0 116 87 146 c47 81 93 157 101 170 14 22 14 22 -34 22 l-49 0 -70 -125
c-38 -69 -72 -125 -75 -125 -3 0 -18 24 -33 53 -16 28 -47 85 -70 125 l-41 72
-43 0 c-24 0 -43 -4 -43 -9z"/>
<path d="M2460 1222 c0 -4 43 -81 95 -170 l95 -162 0 -121 c0 -121 0 -121 23
-115 12 3 30 6 40 6 15 0 17 12 17 115 l0 114 95 162 c52 88 95 165 95 170 0
5 -18 9 -40 9 l-39 0 -69 -117 c-38 -65 -71 -124 -74 -132 -2 -8 -37 45 -77
117 l-73 132 -44 0 c-24 0 -44 -4 -44 -8z"/>
<path d="M1160 1017 c-41 -11 -45 -15 -48 -46 -3 -31 -2 -33 20 -27 13 4 46
10 73 13 57 5 80 -7 91 -49 l6 -28 -63 0 c-72 0 -141 -26 -158 -58 -14 -26
-14 -97 -1 -123 27 -49 129 -65 189 -28 l33 20 22 -20 c22 -21 68 -27 100 -15
23 9 21 54 -2 54 -35 0 -42 21 -42 132 0 103 -1 109 -27 138 -42 46 -108 59
-193 37z m140 -231 c0 -40 -24 -62 -78 -72 -60 -11 -94 44 -52 86 15 15 33 20
75 20 l55 0 0 -34z"/>
<path d="M1990 1017 c-41 -11 -45 -15 -48 -46 -3 -31 -2 -33 20 -27 13 4 44 9
71 13 54 7 87 -13 87 -54 0 -21 -4 -23 -52 -23 -112 0 -167 -35 -175 -113 -5
-38 -1 -48 24 -77 25 -28 38 -34 84 -37 40 -3 64 1 92 16 38 19 39 19 58 0 19
-19 71 -25 103 -13 9 3 16 17 16 29 0 18 -6 24 -27 27 l-28 3 -5 115 c-5 120
-17 157 -57 178 -32 17 -117 21 -163 9z m130 -235 c0 -36 -3 -40 -41 -57 -53
-24 -93 -12 -97 29 -5 45 22 66 85 66 l53 0 0 -38z"/>
<path d="M3025 1025 c-5 -2 -27 -6 -47 -10 -36 -6 -38 -8 -38 -42 0 -30 3 -34
18 -28 9 4 40 10 68 12 43 4 55 2 73 -16 11 -11 21 -30 21 -41 0 -17 -7 -20
-52 -20 -117 0 -178 -41 -178 -117 0 -24 5 -53 10 -64 27 -49 122 -64 189 -29
38 19 39 19 56 0 18 -20 66 -26 99 -14 24 9 21 54 -4 54 -31 0 -40 31 -40 135
0 137 -20 166 -121 179 -24 3 -48 3 -54 1z m95 -240 c0 -40 -26 -62 -83 -72
-28 -4 -37 -1 -51 18 -21 31 -20 45 4 69 15 15 33 20 75 20 l55 0 0 -35z"/>
<path d="M3810 1017 c-41 -11 -45 -15 -48 -46 -3 -31 -2 -33 20 -27 13 4 44
10 71 13 55 6 87 -13 87 -54 0 -21 -4 -23 -58 -23 -68 0 -140 -31 -160 -70
-19 -36 -8 -98 22 -128 34 -35 116 -41 169 -13 38 20 38 20 58 0 16 -16 31
-19 67 -17 43 3 47 5 50 30 3 23 -1 27 -25 30 l-28 3 -5 115 c-5 120 -17 157
-57 178 -32 17 -117 21 -163 9z m130 -236 c0 -34 -4 -41 -34 -55 -61 -29 -106
-14 -106 34 0 39 32 60 92 60 l48 0 0 -39z"/>
<path d="M636 183 c-4 -76 -10 -146 -12 -155 -4 -14 1 -18 19 -18 24 0 25 2
32 112 5 79 10 107 16 93 5 -11 26 -62 47 -114 37 -92 58 -115 80 -88 5 7 28
61 50 121 l40 109 7 -119 c6 -108 9 -120 26 -121 17 -2 19 6 19 81 0 46 -3
117 -6 159 -7 75 -8 77 -33 77 -24 0 -30 -10 -75 -130 l-50 -130 -49 130 c-47
123 -51 130 -77 130 l-28 0 -6 -137z"/>
<path d="M1840 160 c0 -153 1 -160 20 -160 17 0 20 7 20 45 0 25 3 45 7 45 4
0 25 -18 48 -39 22 -22 53 -42 69 -45 l29 -5 -39 42 c-73 77 -72 73 -25 113
22 20 41 40 41 45 0 21 -41 6 -84 -32 l-46 -41 0 96 c0 89 -1 96 -20 96 -19 0
-20 -7 -20 -160z"/>
<path d="M2330 161 c0 -154 1 -159 20 -154 16 4 20 14 20 44 0 22 3 39 7 39 4
0 26 -19 49 -41 36 -36 94 -61 94 -41 0 4 -23 30 -51 58 l-51 51 48 45 c45 42
46 45 21 44 -14 -1 -44 -16 -66 -34 -22 -18 -42 -32 -45 -32 -3 0 -6 40 -6 90
0 83 -1 90 -20 90 -19 0 -20 -7 -20 -159z"/>
<path d="M3142 163 c3 -150 4 -158 23 -158 18 0 20 8 23 77 3 73 4 78 27 84
47 12 55 1 55 -80 0 -58 3 -75 16 -80 28 -11 34 4 34 85 0 66 -3 82 -20 99
-22 22 -60 26 -91 10 -18 -10 -19 -7 -19 55 0 63 -1 65 -25 65 l-26 0 3 -157z"/>
<path d="M3500 166 l0 -154 31 -7 c37 -8 108 1 130 18 45 34 50 88 12 126 -27
25 -27 28 -10 44 9 10 17 32 17 51 0 53 -36 76 -116 76 l-64 0 0 -154z m114
108 c19 -7 21 -55 4 -72 -7 -7 -25 -12 -40 -12 -27 0 -28 2 -28 45 0 41 2 45
24 45 13 0 31 -3 40 -6z m14 -140 c46 -32 13 -94 -50 -94 -27 0 -28 2 -28 55
0 53 1 55 28 55 15 0 38 -7 50 -16z"/>
<path d="M2094 275 c-8 -20 4 -35 26 -35 25 0 35 17 20 35 -16 19 -39 19 -46
0z"/>
<path d="M2187 284 c-4 -4 -7 -16 -7 -26 0 -13 7 -18 26 -18 21 0 25 4 22 22
-3 23 -27 35 -41 22z"/>
<path d="M1084 200 c-34 -13 -54 -50 -54 -98 0 -82 70 -122 159 -91 20 7 31
18 31 30 0 17 -3 18 -20 9 -34 -18 -101 -8 -118 17 l-14 23 76 0 76 0 0 35 c0
67 -66 103 -136 75z m84 -42 c22 -22 13 -28 -38 -28 -27 0 -50 4 -50 8 0 16
25 32 50 32 14 0 31 -5 38 -12z"/>
<path d="M1270 190 c0 -17 7 -20 45 -20 25 0 45 -3 45 -6 0 -3 -23 -38 -51
-76 -29 -40 -47 -73 -41 -77 6 -3 45 -6 88 -6 66 0 79 3 82 17 3 14 -6 17 -53
20 l-56 3 51 70 c27 38 50 74 50 80 0 6 -33 11 -80 12 -73 2 -80 0 -80 -17z"/>
<path d="M1510 183 c-29 -26 -33 -36 -33 -78 0 -41 4 -52 31 -77 36 -31 88
-37 131 -15 47 23 36 36 -24 30 -45 -5 -59 -2 -75 12 -11 10 -20 22 -20 27 0
4 34 8 75 8 l75 0 0 34 c0 49 -27 77 -81 83 -41 5 -50 2 -79 -24z m110 -33
c10 -19 8 -20 -45 -20 -30 0 -55 2 -55 4 0 3 7 12 16 20 22 23 71 20 84 -4z"/>
<path d="M2110 197 c-14 -7 -33 -28 -43 -47 -51 -101 74 -198 161 -125 37 31
48 73 32 120 -19 57 -91 82 -150 52z m94 -43 c9 -8 16 -31 16 -49 0 -41 -22
-65 -60 -65 -32 0 -60 31 -60 65 0 55 67 86 104 49z"/>
<path d="M2701 196 c-67 -37 -68 -146 -2 -181 82 -42 161 8 161 101 0 51 -45
94 -97 94 -21 -1 -49 -7 -62 -14z m97 -38 c16 -16 16 -90 0 -106 -17 -17 -64
-15 -82 4 -9 8 -16 31 -16 49 0 18 7 41 16 49 18 19 65 21 82 4z"/>
<path d="M2965 198 c-37 -20 -55 -52 -55 -96 0 -58 41 -102 95 -102 43 0 75
15 75 35 0 12 -10 13 -45 8 -56 -7 -75 7 -75 58 0 53 22 72 77 66 36 -4 43 -2
43 13 0 28 -75 40 -115 18z"/>
<path d="M3774 196 c-25 -19 -11 -31 32 -27 34 2 64 -12 64 -30 0 -5 -16 -9
-36 -9 -61 0 -94 -25 -94 -72 0 -47 63 -73 112 -47 14 8 23 8 31 0 15 -15 54
-14 63 1 4 7 -2 18 -14 26 -19 12 -22 24 -22 78 0 54 -3 65 -22 78 -28 20 -88
21 -114 2z m92 -111 c9 -23 -15 -45 -47 -45 -24 0 -29 4 -29 24 0 13 6 27 13
29 25 11 58 6 63 -8z"/>
<path d="M3995 202 c-6 -4 -8 -44 -5 -102 4 -81 8 -95 23 -96 14 -2 17 7 17
56 0 79 13 110 45 110 18 0 25 5 25 20 0 25 -32 27 -54 4 -15 -14 -17 -14 -22
0 -7 18 -14 20 -29 8z"/>
</g>
</svg>
